# xmcd
#
# Track frame offsets: 
#        150
#        12827
#        26455
#        39600
#        54027
#        67812
#        79387
#        93397
#        105905
#        118295
#        132405
#        146250
#        159485
#        173890
#        185562
#        198192
#        210052
#        223220
#        235975
#        247945
#        259240
#        271535
#        285407
#        297382
#        309315
#        323667
#
# Disc length: 4499 seconds
#
# Revision: 2
# Processed by: cddbd v1.5.2PL0 Copyright (c) Steve Scherf et al.
# Submitted via: ExactAudioCopy v0.99pb4
#
DISCID=6211911a
DTITLE=Blind Blake - Complete Recorded Works Vol. 1
DYEAR=1991
DGENRE=Blues
TTITLE0=Dying Blues
TTITLE1=Ashley St. Blues
TTITLE2=Early Morning Blues
TTITLE3=West Coast Blues
TTITLE4=Early Morning Blues
TTITLE5=Too Tight
TTITLE6=Blake's Worried Blues
TTITLE7=Come On Boys Let's Do That Messin' Around
TTITLE8=Tampa Bound
TTITLE9=Skeedle Loo Doo Blues [take 1]
TTITLE10=Skeedle Loo Doo Blues [take 2]
TTITLE11=Stonewall Street Blues
TTITLE12=State Street Men Blues
TTITLE13=Down the Country
TTITLE14=Black Biting Bee Blues
TTITLE15=Wilson Dam
TTITLE16=Buck-Town Blues
TTITLE17=Black Dog Blues
TTITLE18=One Time Blues
TTITLE19=Bad Feeling Blues
TTITLE20=Dry Bone Shuffle
TTITLE21=That Will Never Happen No More
TTITLE22=Brownskin Mama Blues
TTITLE23=Hard Road Blues
TTITLE24=Hey Hey Daddy Blues
TTITLE25=Sea Board Stomp
EXTD=
EXTT0=
EXTT1=
EXTT2=
EXTT3=
EXTT4=
EXTT5=
EXTT6=
EXTT7=
EXTT8=
EXTT9=
EXTT10=
EXTT11=
EXTT12=
EXTT13=
EXTT14=
EXTT15=
EXTT16=
EXTT17=
EXTT18=
EXTT19=
EXTT20=
EXTT21=
EXTT22=
EXTT23=
EXTT24=
EXTT25=
PLAYORDER=
